<svg xmlns="http://www.w3.org/2000/svg" xmlns:xlink="http://www.w3.org/1999/xlink" version="1.1" x="0px" y="0px" viewBox="0 0 100 125" enable-background="new 0 0 100 100" xml:space="preserve"><g><circle fill="#000000" cx="49.942" cy="25.078" r="6.233"/><path fill="#000000" d="M55.72,56.546h2.033l-1.085-15.784l10.164-11.768c1.021-1.193,0.879-2.986-0.313-4.005   c-0.536-0.457-1.19-0.681-1.845-0.681c-0.802,0-1.598,0.338-2.161,0.995l-8.069,8.791c0-3.042-1.098-0.883-4.354-0.883h-0.295   c-3.256,0-4.354-2.16-4.354,0.883l-8.07-8.624c-0.563-0.658-1.36-0.995-2.161-0.995c-0.654,0-1.308,0.224-1.845,0.681   c-1.192,1.019-1.333,2.812-0.313,4.005L43.22,40.933l-1.09,15.613h2.033v0.201L42.09,78.959c-0.147,1.563,1.001,2.947,2.564,3.094   c0.089,0.007,0.179,0.012,0.267,0.012c1.449,0,2.687-1.104,2.825-2.576l2.007-21.503h0.377l2.007,21.503   c0.139,1.472,1.376,2.576,2.825,2.576c0.089,0,0.177-0.005,0.268-0.012c1.562-0.146,2.709-1.53,2.564-3.094L55.72,56.747V56.546z"/><path fill="#000000" d="M68.42,24.657c0,0,2.038-0.408,3.669-1.412c-0.18,0.58-0.275,1.195-0.275,1.834   c0,3.443,2.792,6.232,6.233,6.232c3.442,0,6.234-2.79,6.234-6.232c0-3.444-2.792-6.234-6.234-6.234   c-2.028,0-3.824,0.973-4.963,2.473c-0.955-0.693-2.938-1.669-4.69,0.48c0,0-1.459,1.853-3.774,0.205   C64.619,22.003,65.173,25.343,68.42,24.657z"/><path fill="#000000" d="M94.26,47.13l-9.934-11.622l-1.76-1.415c0-3.042-1.099-0.883-4.354-0.883h-0.161h-0.008h-0.161   c-3.256,0-4.354-2.16-4.354,0.883l-1.761,1.415L61.835,47.13c-1.021,1.192-0.88,2.986,0.313,4.005   c0.537,0.457,1.191,0.681,1.846,0.681c0.801,0,1.597-0.337,2.161-0.994l4.91-5.746l-2.388,19.18h3.575v0.2l-2.075,14.503   c-0.145,1.563,1.003,2.947,2.565,3.094c0.09,0.007,0.178,0.012,0.268,0.012c1.448,0,2.686-1.104,2.824-2.576l2.008-13.793h0.202   h0.008h0.201l2.007,13.793c0.139,1.472,1.377,2.576,2.825,2.576c0.089,0,0.179-0.005,0.269-0.012   c1.562-0.146,2.709-1.53,2.564-3.094l-2.075-14.503v-0.2h3.575l-2.387-19.18l4.91,5.746c0.563,0.657,1.359,0.994,2.161,0.994   c0.653,0,1.308-0.224,1.844-0.681C95.139,50.116,95.281,48.322,94.26,47.13z"/><path fill="#000000" d="M12.21,24.657c0,0,2.037-0.408,3.667-1.412c-0.178,0.58-0.275,1.195-0.275,1.834   c0,3.443,2.791,6.232,6.234,6.232c3.442,0,6.233-2.79,6.233-6.232c0-3.444-2.791-6.234-6.233-6.234   c-2.028,0-3.825,0.973-4.963,2.473c-0.955-0.693-2.938-1.669-4.691,0.48c0,0-1.459,1.853-3.775,0.205   C8.407,22.003,8.961,25.343,12.21,24.657z"/><path fill="#000000" d="M28.115,35.508l-1.76-1.415c0-3.042-1.098-0.883-4.353-0.883h-0.161h-0.008h-0.162   c-3.256,0-4.354-2.16-4.354,0.883l-1.76,1.415L5.624,47.13c-1.021,1.192-0.879,2.986,0.313,4.005   c0.536,0.457,1.191,0.681,1.844,0.681c0.801,0,1.598-0.337,2.161-0.994l4.911-5.746l-2.387,19.18h3.575v0.2l-2.075,14.503   c-0.145,1.563,1.003,2.947,2.564,3.094c0.09,0.007,0.18,0.012,0.268,0.012c1.448,0,2.686-1.104,2.825-2.576l2.007-13.793h0.202   h0.008h0.202l2.007,13.793c0.139,1.472,1.376,2.576,2.825,2.576c0.088,0,0.177-0.005,0.268-0.012   c1.561-0.146,2.709-1.53,2.564-3.094l-2.074-14.503v-0.2h3.575l-2.387-19.18l4.91,5.746c0.563,0.657,1.36,0.994,2.161,0.994   c0.653,0,1.309-0.224,1.844-0.681c1.193-1.02,1.334-2.813,0.313-4.005L28.115,35.508z"/></g><text x="0" y="115" fill="#000000" font-size="5px" font-weight="bold" font-family="'Helvetica Neue', Helvetica, Arial-Unicode, Arial, Sans-serif">Created by TukTuk Design</text><text x="0" y="120" fill="#000000" font-size="5px" font-weight="bold" font-family="'Helvetica Neue', Helvetica, Arial-Unicode, Arial, Sans-serif">from the Noun Project</text></svg>