<svg xmlns="http://www.w3.org/2000/svg" xmlns:xlink="http://www.w3.org/1999/xlink" xmlns:sketch="http://www.bohemiancoding.com/sketch/ns" viewBox="0 0 90 112.5" version="1.1" x="0px" y="0px"><title>Group</title><desc>Created with Sketch.</desc><g stroke="none" stroke-width="1" fill="none" fill-rule="evenodd" sketch:type="MSPage"><g sketch:type="MSLayerGroup" fill="#000000"><path d="M51.7254545,79.3495041 C50.5852066,80.1617355 49.3490083,80.8281818 48.0384298,81.3443802 C50.5636364,77.7540496 51.9381818,73.342562 52.1256198,68.6320661 L57.3307438,72.6924793 C56.0268595,75.3352066 54.157686,77.6171901 51.7254545,79.3495041 L51.7254545,79.3495041 Z M18.2766942,82.8304959 L20.9075207,77.2467769 C22.1660331,78.3706612 23.486281,79.3896694 24.8504132,80.3060331 C24.9612397,80.4079339 25.0824793,80.4994215 25.2245455,80.5671074 C25.2297521,80.5693388 25.2342149,80.5700826 25.2394215,80.572314 C29.3638017,83.261157 33.8868595,84.9555372 38.4009917,85.4457025 C36.2142149,86.3672727 33.8124793,86.8544628 31.2954545,86.8544628 C26.8787603,86.8544628 22.3594215,85.4055372 18.2766942,82.8304959 L18.2766942,82.8304959 Z M9.46933884,74.4567769 C5.38214876,68.7190909 3.34338843,62.0568595 3.72867769,55.6973554 C3.94066116,52.1910744 4.87933884,49.0142975 6.45619835,46.3380992 L8.57975207,47.9945455 C7.9185124,55.4065289 10.1097521,63.7073554 15.2747107,70.9579339 C16.3145455,72.4172727 17.4518182,73.7761983 18.6545455,75.0473554 L15.8087603,81.0877686 C13.4516529,79.2461157 11.2953719,77.0191736 9.46933884,74.4567769 L9.46933884,74.4567769 Z M9.69917355,42.3327273 C9.46190083,43.0787603 9.26107438,43.8426446 9.0922314,44.6199174 L8.18033058,43.9095868 C8.65264463,43.3517355 9.15842975,42.825124 9.69917355,42.3327273 L9.69917355,42.3327273 Z M19.2503306,33.7656198 C22.2649587,31.6190083 25.9482645,30.4839669 29.902314,30.4839669 C34.9676033,30.4839669 40.1786777,32.306281 44.812562,35.5083471 L41.1694215,43.2401653 C35.5380992,37.9963636 28.4667769,34.9028926 21.5858678,34.9028926 C20.1466116,34.9028926 18.7408264,35.0523967 17.3744628,35.3194215 C17.9590909,34.7638017 18.5809091,34.2423967 19.2503306,33.7656198 L19.2503306,33.7656198 Z M41.328595,56.437438 C41.7912397,55.6847107 42.0143802,54.8122314 41.9608264,53.9114876 C41.8953719,52.8352066 41.4364463,51.8682645 40.7335537,51.1452893 L42.0024793,48.4534711 C42.4881818,49.042562 42.9642149,49.6457851 43.4127273,50.2757851 C46.0844628,54.0252893 47.8160331,58.1042975 48.6379339,62.1379339 L41.328595,56.437438 L41.328595,56.437438 Z M14.1761157,39.4229752 C14.2824793,39.3753719 14.3880992,39.326281 14.4952066,39.2809091 L29.8606612,51.2665289 L27.2461983,56.8160331 C26.6347934,56.8926446 26.0598347,57.1113223 25.5726446,57.4742975 L11.7141322,46.6653719 C12.1202479,44.0479339 12.9391736,41.594876 14.1761157,39.4229752 L14.1761157,39.4229752 Z M31.1615702,48.5070248 L17.9866116,38.2299174 C19.1528926,38.0045455 20.3541322,37.8780992 21.5858678,37.8780992 C25.9103306,37.8780992 30.3322314,39.2712397 34.3472727,41.7466116 L31.1615702,48.5070248 L31.1615702,48.5070248 Z M38.0521488,49.8547934 C37.8260331,49.8332231 37.5984298,49.8235537 37.3641322,49.8391736 C36.2484298,49.9061157 35.2591736,50.3947934 34.5332231,51.1363636 L33.5670248,50.3828926 L36.8308264,43.4580992 C37.8736364,44.2561983 38.8792562,45.1271901 39.8342975,46.0733058 L38.0521488,49.8547934 L38.0521488,49.8547934 Z M31.2307438,60.1601653 L34.3033884,57.8090083 L32.0719835,62.5447934 L30.9585124,61.6760331 C31.1556198,61.2 31.2552893,60.6882645 31.2307438,60.1601653 L31.2307438,60.1601653 Z M33.2910744,54.4358678 C33.2985124,54.5593388 33.3304959,54.6746281 33.3476033,54.795124 L30.4408264,57.0183471 L32.2668595,53.1423967 L33.2910744,53.9412397 C33.2821488,54.104876 33.2806612,54.2692562 33.2910744,54.4358678 L33.2910744,54.4358678 Z M11.4210744,50.2110744 L24.1579339,60.1452893 C24.1512397,60.2769421 24.134876,60.4071074 24.1430579,60.5395041 C24.1809917,61.1583471 24.3877686,61.7258678 24.7009091,62.2175207 L20.0186777,72.1524793 C19.2027273,71.2286777 18.4261983,70.2550413 17.6980165,69.232314 C13.4070248,63.2090083 11.3385124,56.4195868 11.4210744,50.2110744 L11.4210744,50.2110744 Z M22.2359504,74.4285124 L27.2298347,63.8308264 C27.3808264,63.8509091 27.5303306,63.8754545 27.6857851,63.8754545 C27.7571901,63.8754545 27.8300826,63.8732231 27.9022314,63.8687603 C28.1871074,63.8516529 28.4608264,63.7906612 28.7278512,63.7095868 L30.7718182,65.3050413 L25.2706612,76.9790083 C24.221157,76.2009917 23.2095868,75.3463636 22.2359504,74.4285124 L22.2359504,74.4285124 Z M41.0734711,82.6319008 C36.5868595,82.6319008 31.9864463,81.2008264 27.7720661,78.6510744 L33.1772727,67.1801653 L46.4757025,77.5532231 C46.5731405,77.6290909 46.6817355,77.673719 46.7880992,77.7220661 C45.8233884,79.5324793 44.572314,81.1554545 43.0341322,82.5255372 C42.3885124,82.5887603 41.7361983,82.6319008 41.0734711,82.6319008 L41.0734711,82.6319008 Z M47.9908264,74.9610744 L34.4781818,64.4206612 L37.2763636,58.4821488 C37.3923967,58.4910744 37.5054545,58.5156198 37.623719,58.5156198 C37.7114876,58.5156198 37.8,58.5133884 37.8877686,58.507438 C38.2358678,58.4866116 38.5705785,58.4129752 38.8963636,58.3133058 L49.1638017,66.322562 C49.3073554,69.3647107 48.9116529,72.2990083 47.9908264,74.9610744 L47.9908264,74.9610744 Z M53.2770248,43.8835537 C59.2400826,52.2528099 60.9166116,62.1014876 58.4784298,69.8139669 L52.0185124,64.7747107 C51.5038017,59.306281 49.4650413,53.6429752 45.8360331,48.5486777 C45.0736364,47.4790909 44.2561983,46.4615702 43.394876,45.4983471 L47.235124,37.3485124 C49.4613223,39.2109917 51.5090083,41.4029752 53.2770248,43.8835537 L53.2770248,43.8835537 Z M55.7003306,42.1571901 C53.4287603,38.9692562 50.7220661,36.2186777 47.7632231,33.9790909 C47.6672727,33.8801653 47.5557025,33.7953719 47.4307438,33.7247107 C42.0768595,29.7706612 35.9085124,27.5087603 29.902314,27.5087603 C25.3264463,27.5087603 21.0458678,28.8342149 17.5247107,31.342314 C15.6852893,32.6528926 14.1277686,34.2357025 12.8439669,36.0208264 C12.8290909,36.0379339 12.8119835,36.0513223 12.7971074,36.0691736 C12.7532231,36.1257025 12.7197521,36.187438 12.6847934,36.2484298 C12.4899174,36.5258678 12.3009917,36.8085124 12.1202479,37.0963636 C11.2239669,37.5463636 10.361157,38.0603306 9.5414876,38.6434711 C4.31107438,42.3691736 1.19157025,48.3612397 0.758677686,55.5173554 C0.332479339,62.553719 2.5653719,69.8935537 7.04677686,76.1831405 C13.0433058,84.6007438 22.334876,89.8296694 31.2954545,89.8296694 C35.741157,89.8296694 39.9057025,88.5361983 43.3420661,86.0890909 C43.6619008,85.8607438 43.9713223,85.6242149 44.2747934,85.3795041 C47.6375207,84.9057025 50.7659504,83.6858678 53.4510744,81.7728099 C56.6047934,79.5265289 58.9447934,76.4918182 60.457686,72.9818182 C60.5313223,72.8546281 60.5856198,72.7207438 60.6183471,72.5831405 C64.241405,63.7289256 62.6987603,51.9805785 55.7003306,42.1571901 L55.7003306,42.1571901 Z" sketch:type="MSShapeGroup"/><path d="M81.2015702,71.1386777 C79.034876,71.1386777 77.2698347,69.3743802 77.2698347,67.207686 C77.2698347,66.9719008 77.0779339,66.7703306 76.8332231,66.7703306 C76.5885124,66.7703306 76.3966116,66.9719008 76.3966116,67.207686 C76.3966116,69.3743802 74.632314,71.1386777 72.4656198,71.1386777 C72.2201653,71.1386777 72.0282645,71.3402479 72.0282645,71.5752893 C72.0282645,71.8192562 72.2201653,72.0119008 72.4656198,72.0119008 C74.632314,72.0119008 76.3966116,73.7769421 76.3966116,75.9436364 C76.3966116,76.1876033 76.5885124,76.3802479 76.8332231,76.3802479 C77.0779339,76.3802479 77.2698347,76.1876033 77.2698347,75.9436364 C77.2698347,73.7769421 79.034876,72.0119008 81.2015702,72.0119008 C81.446281,72.0119008 81.6381818,71.8192562 81.6381818,71.5752893 C81.6381818,71.3402479 81.446281,71.1386777 81.2015702,71.1386777" sketch:type="MSShapeGroup"/><path d="M39.6929752,16.5428926 C41.5383471,16.5428926 43.0400826,18.0453719 43.0400826,19.89 C43.0400826,20.0975207 43.203719,20.2619008 43.4119835,20.2619008 C43.6209917,20.2619008 43.7838843,20.0975207 43.7838843,19.89 C43.7838843,18.0453719 45.2863636,16.5428926 47.1309917,16.5428926 C47.34,16.5428926 47.5028926,16.3785124 47.5028926,16.1709917 C47.5028926,15.9701653 47.34,15.7990909 47.1309917,15.7990909 C45.2863636,15.7990909 43.7838843,14.2966116 43.7838843,12.4519835 C43.7838843,12.251157 43.6209917,12.0800826 43.4119835,12.0800826 C43.203719,12.0800826 43.0400826,12.251157 43.0400826,12.4519835 C43.0400826,14.2966116 41.5383471,15.7990909 39.6929752,15.7990909 C39.4847107,15.7990909 39.3210744,15.9701653 39.3210744,16.1709917 C39.3210744,16.3785124 39.4847107,16.5428926 39.6929752,16.5428926" sketch:type="MSShapeGroup"/><path d="M2.9253719,19.1461983 C4.7692562,19.1461983 6.27247934,20.6486777 6.27247934,22.4933058 C6.27247934,22.7008264 6.4353719,22.8652066 6.64438017,22.8652066 C6.85264463,22.8652066 7.01628099,22.7008264 7.01628099,22.4933058 C7.01628099,20.6486777 8.51876033,19.1461983 10.3633884,19.1461983 C10.5716529,19.1461983 10.7352893,18.9818182 10.7352893,18.7742975 C10.7352893,18.5734711 10.5716529,18.4023967 10.3633884,18.4023967 C8.51876033,18.4023967 7.01628099,16.8999174 7.01628099,15.0552893 C7.01628099,14.8544628 6.85264463,14.6833884 6.64438017,14.6833884 C6.4353719,14.6833884 6.27247934,14.8544628 6.27247934,15.0552893 C6.27247934,16.8999174 4.7692562,18.4023967 2.9253719,18.4023967 C2.71636364,18.4023967 2.55347107,18.5734711 2.55347107,18.7742975 C2.55347107,18.9818182 2.71636364,19.1461983 2.9253719,19.1461983" sketch:type="MSShapeGroup"/><path d="M86.4483471,15.573719 C86.4483471,18.6143802 83.9744628,21.0875207 80.9345455,21.0875207 C77.8938843,21.0875207 75.42,18.6143802 75.42,15.573719 C75.42,12.5330579 77.8938843,10.0599174 80.9345455,10.0599174 C83.9744628,10.0599174 86.4483471,12.5330579 86.4483471,15.573719 L86.4483471,15.573719 Z M58.7447107,3.13735537 L76.3475207,8.44140496 C75.7286777,8.84082645 75.1700826,9.31834711 74.6754545,9.85909091 L65.5713223,6.98801653 C64.7903306,6.73958678 63.9520661,7.17471074 63.705124,7.95942149 C63.4581818,8.74338843 63.892562,9.57867769 64.6765289,9.82561983 L73.0435537,12.4638843 C72.6612397,13.4278512 72.4447934,14.4758678 72.4447934,15.573719 C72.4447934,16.6604132 72.6582645,17.6965289 73.0323967,18.652314 L64.6765289,21.2861157 C63.892562,21.5330579 63.4581818,22.3683471 63.705124,23.152314 C63.9052066,23.7867769 64.4913223,24.1928926 65.1235537,24.1928926 C65.2715702,24.1928926 65.422562,24.1705785 65.5713223,24.1229752 L74.6501653,21.2615702 C75.1455372,21.8075207 75.7071074,22.2909917 76.3281818,22.6941322 L58.7454545,27.9743802 C57.9592562,28.2109091 57.5122314,29.0402479 57.7495041,29.8264463 C57.9421488,30.4713223 58.5327273,30.8871074 59.1731405,30.8871074 C59.3144628,30.8871074 59.4587603,30.866281 59.6015702,30.8231405 L82.8706612,23.8358678 C82.8803306,23.8328926 82.8877686,23.827686 82.897438,23.8247107 C86.6335537,22.935124 89.4235537,19.5776033 89.4235537,15.573719 C89.4235537,11.6382645 86.7272727,8.32909091 83.0871074,7.37256198 C83.0677686,7.36512397 83.051405,7.35471074 83.0320661,7.34950413 L59.6030579,0.28785124 C58.8183471,0.0528099174 57.9860331,0.496859504 57.7495041,1.28305785 C57.5122314,2.07 57.9577686,2.90008264 58.7447107,3.13735537 L58.7447107,3.13735537 Z" sketch:type="MSShapeGroup"/><path d="M81.5020661,18.4247107 C81.7958678,18.7475207 82.1990083,18.9119008 82.6036364,18.9119008 C82.9599174,18.9119008 83.3184298,18.7839669 83.6033058,18.5243802 C84.4661157,17.7404132 84.9607438,16.6224793 84.9607438,15.4584298 C84.9607438,14.328595 84.513719,13.2731405 83.7029752,12.4869421 C83.1131405,11.9134711 82.1707438,11.9290909 81.5995041,12.517438 C81.0275207,13.1072727 81.0409091,14.0489256 81.63,14.6209091 C81.8598347,14.8433058 81.9855372,15.1408264 81.9855372,15.4584298 C81.9855372,15.7909091 81.8494215,16.0980992 81.6017355,16.3234711 C80.9940496,16.8753719 80.9494215,17.8170248 81.5020661,18.4247107" sketch:type="MSShapeGroup"/><path d="M87.1787603,34.4149587 C85.3341322,34.4149587 83.8316529,32.9132231 83.8316529,31.0678512 C83.8316529,30.8677686 83.6680165,30.6959504 83.4597521,30.6959504 C83.2514876,30.6959504 83.0878512,30.8677686 83.0878512,31.0678512 C83.0878512,32.9132231 81.5861157,34.4149587 79.7407438,34.4149587 C79.5324793,34.4149587 79.368843,34.5867769 79.368843,34.7868595 C79.368843,34.995124 79.5324793,35.1587603 79.7407438,35.1587603 C81.5861157,35.1587603 83.0878512,36.6612397 83.0878512,38.5058678 C83.0878512,38.7141322 83.2514876,38.8777686 83.4597521,38.8777686 C83.6680165,38.8777686 83.8316529,38.7141322 83.8316529,38.5058678 C83.8316529,36.6612397 85.3341322,35.1587603 87.1787603,35.1587603 C87.3870248,35.1587603 87.5506612,34.995124 87.5506612,34.7868595 C87.5506612,34.5867769 87.3870248,34.4149587 87.1787603,34.4149587" sketch:type="MSShapeGroup"/><path d="M74.1250413,47.2455372 C74.1250413,47.0454545 73.9621488,46.8736364 73.7531405,46.8736364 C71.9085124,46.8736364 70.4060331,45.3719008 70.4060331,43.5265289 C70.4060331,43.3264463 70.2431405,43.1546281 70.0341322,43.1546281 C69.8258678,43.1546281 69.6622314,43.3264463 69.6622314,43.5265289 C69.6622314,45.3719008 68.1604959,46.8736364 66.315124,46.8736364 C66.1068595,46.8736364 65.9432231,47.0454545 65.9432231,47.2455372 C65.9432231,47.4538017 66.1068595,47.617438 66.315124,47.617438 C68.1604959,47.617438 69.6622314,49.1199174 69.6622314,50.9645455 C69.6622314,51.1728099 69.8258678,51.3364463 70.0341322,51.3364463 C70.2431405,51.3364463 70.4060331,51.1728099 70.4060331,50.9645455 C70.4060331,49.1199174 71.9085124,47.617438 73.7531405,47.617438 C73.9621488,47.617438 74.1250413,47.4538017 74.1250413,47.2455372" sketch:type="MSShapeGroup"/><path d="M26.2963636,5.5792562 C28.4630579,5.5792562 30.2273554,7.34429752 30.2273554,9.51099174 C30.2273554,9.75495868 30.4185124,9.94760331 30.6639669,9.94760331 C30.9086777,9.94760331 31.1005785,9.75495868 31.1005785,9.51099174 C31.1005785,7.34429752 32.8656198,5.5792562 35.032314,5.5792562 C35.2770248,5.5792562 35.4689256,5.38661157 35.4689256,5.14264463 C35.4689256,4.9068595 35.2770248,4.70603306 35.032314,4.70603306 C32.8656198,4.70603306 31.1005785,2.94173554 31.1005785,0.775041322 C31.1005785,0.538512397 30.9086777,0.33768595 30.6639669,0.33768595 C30.4185124,0.33768595 30.2273554,0.538512397 30.2273554,0.775041322 C30.2273554,2.94173554 28.4630579,4.70603306 26.2963636,4.70603306 C26.0501653,4.70603306 25.8590083,4.9068595 25.8590083,5.14264463 C25.8590083,5.38661157 26.0501653,5.5792562 26.2963636,5.5792562" sketch:type="MSShapeGroup"/></g></g><text x="0" y="105" fill="#000000" font-size="5px" font-weight="bold" font-family="'Helvetica Neue', Helvetica, Arial-Unicode, Arial, Sans-serif">Created by Tatyana Kyul</text><text x="0" y="110" fill="#000000" font-size="5px" font-weight="bold" font-family="'Helvetica Neue', Helvetica, Arial-Unicode, Arial, Sans-serif">from the Noun Project</text></svg>